<svg width="24" height="25" viewBox="0 0 24 25" fill="none" xmlns="http://www.w3.org/2000/svg">
<path fill-rule="evenodd" clip-rule="evenodd" d="M12 5.69434C7.99594 5.69434 4.75 8.94027 4.75 12.9443C4.75 16.9484 7.99594 20.1943 12 20.1943C16.0041 20.1943 19.25 16.9484 19.25 12.9443C19.25 8.94027 16.0041 5.69434 12 5.69434ZM3.25 12.9443C3.25 8.11184 7.16751 4.19434 12 4.19434C16.8325 4.19434 20.75 8.11184 20.75 12.9443C20.75 17.7768 16.8325 21.6943 12 21.6943C7.16751 21.6943 3.25 17.7768 3.25 12.9443Z" fill="white"/>
<path fill-rule="evenodd" clip-rule="evenodd" d="M10.5809 7.55082C10.077 8.8946 9.75 10.8013 9.75 12.9443C9.75 15.0873 10.077 16.9941 10.5809 18.3378C10.8339 19.0125 11.1171 19.5064 11.3935 19.8181C11.6706 20.1307 11.8773 20.1943 12 20.1943C12.1227 20.1943 12.3294 20.1307 12.6065 19.8181C12.8829 19.5064 13.1661 19.0125 13.4191 18.3378C13.923 16.9941 14.25 15.0873 14.25 12.9443C14.25 10.8013 13.923 8.8946 13.4191 7.55082C13.1661 6.87617 12.8829 6.3823 12.6065 6.07057C12.3294 5.75797 12.1227 5.69434 12 5.69434C11.8773 5.69434 11.6706 5.75797 11.3935 6.07057C11.1171 6.3823 10.8339 6.87617 10.5809 7.55082ZM10.2711 5.07546C10.7117 4.57842 11.2943 4.19434 12 4.19434C12.7057 4.19434 13.2883 4.57842 13.7289 5.07546C14.1704 5.57337 14.5337 6.25108 14.8236 7.02414C15.4054 8.5758 15.75 10.6691 15.75 12.9443C15.75 15.2196 15.4054 17.3129 14.8236 18.8645C14.5337 19.6376 14.1704 20.3153 13.7289 20.8132C13.2883 21.3103 12.7057 21.6943 12 21.6943C11.2943 21.6943 10.7117 21.3103 10.2711 20.8132C9.82962 20.3153 9.46633 19.6376 9.17643 18.8645C8.59456 17.3129 8.25 15.2196 8.25 12.9443C8.25 10.6691 8.59456 8.5758 9.17643 7.02414C9.46633 6.25108 9.82962 5.57337 10.2711 5.07546Z" fill="white"/>
<path fill-rule="evenodd" clip-rule="evenodd" d="M3.25 12.9443C3.25 12.5301 3.58579 12.1943 4 12.1943H20C20.4142 12.1943 20.75 12.5301 20.75 12.9443C20.75 13.3585 20.4142 13.6943 20 13.6943H4C3.58579 13.6943 3.25 13.3585 3.25 12.9443Z" fill="white"/>
</svg>
