<svg width="160" height="54" viewBox="0 0 160 54" fill="none" xmlns="http://www.w3.org/2000/svg">
<path d="M10.0239 27.2998C9.24347 27.2998 8.45082 27.373 7.64598 27.5193C6.84114 27.69 6.09727 27.9705 5.41438 28.3607C4.75587 28.7754 4.20712 29.3363 3.76812 30.0436C3.3535 30.7753 3.14619 31.702 3.14619 32.8239C3.14619 33.8727 3.32911 34.7751 3.69495 35.5311C4.08517 36.2872 4.60954 36.9091 5.26804 37.3969C5.92655 37.8847 6.69481 38.2383 7.57281 38.4578C8.45082 38.7017 9.37761 38.8237 10.3532 38.8237C11.3531 38.8237 12.3775 38.7383 13.4262 38.5676C14.4749 38.4212 15.7066 38.0188 17.1211 37.3603L18.3284 39.6651C17.6455 40.1529 16.9138 40.5431 16.1334 40.8358C15.3773 41.1284 14.6457 41.3479 13.9384 41.4943C13.2311 41.665 12.5726 41.7747 11.9629 41.8235C11.3531 41.8967 10.8531 41.9333 10.4629 41.9333C8.90202 41.9333 7.47526 41.7504 6.18264 41.3845C4.9144 41.0187 3.81689 40.4699 2.89011 39.7383C1.98771 39.0066 1.28043 38.092 0.768256 36.9945C0.256086 35.897 0 34.6165 0 33.1532C0 31.3972 0.304864 29.946 0.914591 28.7997C1.52432 27.6535 2.30477 26.7511 3.25594 26.0926C4.23151 25.4097 5.31682 24.9341 6.51189 24.6658C7.70695 24.3975 8.88982 24.2634 10.0605 24.2634H17.8528C17.8528 22.7025 17.6455 21.3855 17.2309 20.3123C16.8163 19.2392 16.2553 18.3734 15.548 17.7149C14.8408 17.032 14.0115 16.5442 13.0604 16.2516C12.1336 15.9345 11.1336 15.776 10.0605 15.776C9.35322 15.776 8.59715 15.8491 7.79232 15.9955C7.01186 16.1174 6.36555 16.2516 5.85338 16.3979V13.4712C6.34116 13.3249 6.98747 13.1663 7.79232 12.9956C8.59715 12.8005 9.47516 12.7029 10.4263 12.7029C12.2555 12.7029 13.8286 13.0078 15.1456 13.6175C16.4626 14.2273 17.548 15.0687 18.4016 16.1418C19.2796 17.1905 19.9259 18.4222 20.3405 19.8368C20.7551 21.2269 20.9746 22.7025 20.999 24.2634H23.3038C24.2793 24.2634 24.7671 24.7512 24.7671 25.7267C24.7671 26.3364 24.6452 26.7511 24.4013 26.9706C24.1818 27.1901 23.816 27.2998 23.3038 27.2998H10.0239Z" fill="white"/>
<path d="M23.2935 27.2998C22.3179 27.2998 21.8301 26.812 21.8301 25.8365C21.8301 25.2267 21.9521 24.8121 22.196 24.5926C22.4155 24.3731 22.7813 24.2634 23.2935 24.2634H29.0005V13.2151H32.0004V27.2998H23.2935ZM24.7568 33.3716C24.7568 32.835 24.9398 32.3717 25.3056 31.9814C25.6958 31.6156 26.1592 31.4327 26.6958 31.4327C27.2323 31.4327 27.6835 31.6156 28.0494 31.9814C28.4396 32.3717 28.6347 32.835 28.6347 33.3716C28.6347 33.9082 28.4396 34.3594 28.0494 34.7252C27.6835 35.1154 27.2323 35.3105 26.6958 35.3105C26.1592 35.3105 25.6958 35.1154 25.3056 34.7252C24.9398 34.3594 24.7568 33.9082 24.7568 33.3716ZM29.5127 33.3716C29.5127 32.835 29.6956 32.3717 30.0615 31.9814C30.4517 31.6156 30.9151 31.4327 31.4516 31.4327C31.9882 31.4327 32.4394 31.6156 32.8052 31.9814C33.1955 32.3717 33.3906 32.835 33.3906 33.3716C33.3906 33.9082 33.1955 34.3594 32.8052 34.7252C32.4394 35.1154 31.9882 35.3105 31.4516 35.3105C30.9151 35.3105 30.4517 35.1154 30.0615 34.7252C29.6956 34.3594 29.5127 33.9082 29.5127 33.3716Z" fill="white"/>
<path d="M45.9248 27.2998C45.1199 27.2998 44.4492 27.1169 43.9127 26.7511C43.3761 26.3852 42.9737 25.9584 42.7054 25.4706C42.7054 27.2266 42.5956 28.7022 42.3761 29.8973C42.1566 31.1167 41.7542 32.0923 41.1689 32.8239C40.6079 33.58 39.8153 34.1166 38.7909 34.4336C37.7666 34.7751 36.4374 34.9458 34.8033 34.9458V31.9094C35.9984 31.9094 36.9252 31.7752 37.5837 31.5069C38.2666 31.263 38.7666 30.8484 39.0836 30.2631C39.4251 29.7021 39.6202 28.9705 39.669 28.0681C39.7421 27.1901 39.7787 26.1169 39.7787 24.8487V15.0443H42.742V20.2392C42.742 21.483 42.9615 22.4708 43.4005 23.2024C43.8639 23.9097 44.7053 24.2634 45.9248 24.2634C46.9003 24.2634 47.3881 24.7512 47.3881 25.7267C47.3881 26.3364 47.2662 26.7511 47.0223 26.9706C46.8028 27.1901 46.4369 27.2998 45.9248 27.2998Z" fill="white"/>
<path d="M58.493 27.2998C57.7369 27.2998 57.115 27.2388 56.6272 27.1169C56.1394 26.9706 55.737 26.7876 55.4199 26.5681C55.1273 26.3486 54.8834 26.0926 54.6883 25.7999C54.5175 25.5072 54.359 25.2145 54.2127 24.9219C53.9932 25.434 53.7005 25.8487 53.3347 26.1657C52.9688 26.4584 52.5054 26.6901 51.9445 26.8608C51.3835 27.0315 50.7006 27.1535 49.8958 27.2266C49.1153 27.2754 48.1886 27.2998 47.1154 27.2998H45.9082C44.9326 27.2998 44.4448 26.812 44.4448 25.8365C44.4448 25.2267 44.5668 24.8121 44.8107 24.5926C45.0302 24.3731 45.396 24.2634 45.9082 24.2634H47.1886C47.9935 24.2634 48.6763 24.239 49.2373 24.1902C49.7982 24.1414 50.2372 24.0317 50.5543 23.861C50.8958 23.6658 51.1396 23.3976 51.286 23.0561C51.4323 22.6903 51.5055 22.2025 51.5055 21.5928V15.0443H54.5053V20.2392C54.5053 20.8489 54.5297 21.4098 54.5785 21.922C54.6273 22.4098 54.737 22.8244 54.9078 23.1659C55.1029 23.5073 55.3711 23.7756 55.7126 23.9707C56.054 24.1658 56.5174 24.2634 57.1028 24.2634C57.5662 22.922 58.2003 21.5684 59.0051 20.2026C59.8344 18.8124 60.8099 17.5686 61.9318 16.4711C63.0781 15.3492 64.3707 14.4468 65.8097 13.7639C67.2486 13.0566 68.8095 12.7029 70.4924 12.7029C72.9557 12.7029 74.858 13.4346 76.1994 14.898C77.5652 16.3613 78.2481 18.4344 78.2481 21.1172V24.2634H81.0285C82.004 24.2634 82.4918 24.7512 82.4918 25.7267C82.4918 26.3364 82.3699 26.7511 82.126 26.9706C81.9065 27.1901 81.5406 27.2998 81.0285 27.2998H58.493ZM75.2483 24.2634V21.8123C75.2483 20.9343 75.1507 20.1294 74.9556 19.3977C74.7849 18.6417 74.4922 17.9954 74.0776 17.4588C73.663 16.9223 73.1142 16.5076 72.4313 16.215C71.7728 15.9223 70.968 15.776 70.0168 15.776C68.8461 15.776 67.7486 16.0321 66.7243 16.5442C65.7243 17.0564 64.7975 17.7149 63.9439 18.5197C63.1147 19.3246 62.3952 20.2392 61.7855 21.2635C61.1758 22.2635 60.688 23.2634 60.3221 24.2634H75.2483Z" fill="white"/>
<path d="M81.027 27.2998C80.0515 27.2998 79.5637 26.812 79.5637 25.8365C79.5637 25.2267 79.6856 24.8121 79.9295 24.5926C80.149 24.3731 80.5149 24.2634 81.027 24.2634H86.7341V13.2151H89.734V27.2998H81.027ZM83.4781 7.06906C83.4781 6.5325 83.6611 6.0813 84.0269 5.71546C84.4171 5.32524 84.8805 5.13013 85.4171 5.13013C85.9536 5.13013 86.4048 5.32524 86.7707 5.71546C87.1609 6.0813 87.356 6.5325 87.356 7.06906C87.356 7.60562 87.1609 8.06901 86.7707 8.45924C86.4048 8.82507 85.9536 9.00799 85.4171 9.00799C84.8805 9.00799 84.4171 8.82507 84.0269 8.45924C83.6611 8.06901 83.4781 7.60562 83.4781 7.06906ZM88.234 7.06906C88.234 6.5325 88.4169 6.0813 88.7828 5.71546C89.173 5.32524 89.6364 5.13013 90.173 5.13013C90.7095 5.13013 91.1607 5.32524 91.5266 5.71546C91.9168 6.0813 92.1119 6.5325 92.1119 7.06906C92.1119 7.60562 91.9168 8.06901 91.5266 8.45924C91.1607 8.82507 90.7095 9.00799 90.173 9.00799C89.6364 9.00799 89.173 8.82507 88.7828 8.45924C88.4169 8.06901 88.234 7.60562 88.234 7.06906Z" fill="white"/>
<path d="M47.6569 34.927C47.6569 35.1264 47.7186 35.2879 47.8421 35.4114C47.9703 35.5349 48.1722 35.5966 48.4476 35.5966C48.5521 35.5966 48.6637 35.5847 48.7825 35.561C48.9059 35.5373 49.0152 35.5064 49.1102 35.4684V34.2003H48.4833C48.2553 34.2003 48.0606 34.2597 47.8991 34.3784C47.7376 34.4924 47.6569 34.6753 47.6569 34.927ZM48.3978 36.2022C48.2838 36.2022 48.1508 36.1855 47.9988 36.1523C47.8516 36.119 47.7091 36.0597 47.5714 35.9742C47.4384 35.884 47.3244 35.7605 47.2294 35.6037C47.1345 35.4423 47.087 35.2333 47.087 34.9768C47.087 34.7204 47.1321 34.5067 47.2223 34.3357C47.3126 34.16 47.4289 34.0175 47.5714 33.9082C47.7139 33.799 47.8706 33.7207 48.0416 33.6732C48.2173 33.6257 48.3906 33.6019 48.5616 33.6019H49.6943V35.6465C49.6943 35.846 49.7252 35.9884 49.7869 36.0739C49.8487 36.1547 49.9864 36.195 50.2001 36.195H50.3711C50.5611 36.195 50.6561 36.29 50.6561 36.48C50.6561 36.5987 50.6323 36.6795 50.5848 36.7222C50.5421 36.7649 50.4708 36.7863 50.3711 36.7863H50.1289C50.0054 36.7863 49.8867 36.7768 49.7727 36.7578C49.6635 36.7341 49.5637 36.6961 49.4735 36.6438C49.388 36.5868 49.3144 36.5132 49.2526 36.423C49.1909 36.3328 49.1505 36.2164 49.1315 36.0739C49.0271 36.1119 48.9083 36.1428 48.7753 36.1665C48.6471 36.1903 48.5213 36.2022 48.3978 36.2022ZM47.8136 32.3054C47.8136 32.2009 47.8492 32.113 47.9205 32.0418C47.9965 31.9658 48.0867 31.9278 48.1912 31.9278C48.2957 31.9278 48.3835 31.9658 48.4548 32.0418C48.5308 32.113 48.5687 32.2009 48.5687 32.3054C48.5687 32.4098 48.5308 32.5001 48.4548 32.5761C48.3835 32.6473 48.2957 32.6829 48.1912 32.6829C48.0867 32.6829 47.9965 32.6473 47.9205 32.5761C47.8492 32.5001 47.8136 32.4098 47.8136 32.3054ZM48.7397 32.3054C48.7397 32.2009 48.7753 32.113 48.8466 32.0418C48.9226 31.9658 49.0128 31.9278 49.1173 31.9278C49.2218 31.9278 49.3096 31.9658 49.3809 32.0418C49.4569 32.113 49.4949 32.2009 49.4949 32.3054C49.4949 32.4098 49.4569 32.5001 49.3809 32.5761C49.3096 32.6473 49.2218 32.6829 49.1173 32.6829C49.0128 32.6829 48.9226 32.6473 48.8466 32.5761C48.7753 32.5001 48.7397 32.4098 48.7397 32.3054Z" fill="white"/>
<path d="M50.3702 36.7863C50.1802 36.7863 50.0852 36.6913 50.0852 36.5014C50.0852 36.3826 50.1089 36.3019 50.1564 36.2591C50.1992 36.2164 50.2704 36.195 50.3702 36.195H50.8475C50.9614 36.195 51.0588 36.1903 51.1395 36.1808C51.2203 36.1713 51.2868 36.1499 51.339 36.1167C51.396 36.0787 51.4364 36.0264 51.4601 35.9599C51.4886 35.8887 51.5029 35.7937 51.5029 35.675V34.0436H52.087V35.4114C52.087 35.5301 52.0941 35.6394 52.1084 35.7391C52.1274 35.8341 52.1606 35.9148 52.2081 35.9813C52.2556 36.0478 52.3197 36.1 52.4005 36.138C52.4812 36.176 52.5833 36.195 52.7068 36.195C52.8968 36.195 52.9918 36.29 52.9918 36.48C52.9918 36.5987 52.968 36.6795 52.9205 36.7222C52.8778 36.7649 52.8065 36.7863 52.7068 36.7863C52.5216 36.7863 52.372 36.7436 52.258 36.6581C52.144 36.5678 52.068 36.4562 52.03 36.3233C51.9445 36.518 51.8092 36.6438 51.624 36.7008C51.4435 36.7578 51.2203 36.7863 50.9543 36.7863H50.3702ZM50.9329 37.862C50.9329 37.7575 50.9686 37.6673 51.0398 37.5913C51.1158 37.5201 51.206 37.4845 51.3105 37.4845C51.415 37.4845 51.5029 37.5201 51.5741 37.5913C51.6501 37.6673 51.6881 37.7575 51.6881 37.862C51.6881 37.9665 51.6501 38.0544 51.5741 38.1256C51.5029 38.2016 51.415 38.2396 51.3105 38.2396C51.206 38.2396 51.1158 38.2016 51.0398 38.1256C50.9686 38.0544 50.9329 37.9665 50.9329 37.862ZM51.8591 37.862C51.8591 37.7575 51.8947 37.6673 51.9659 37.5913C52.0419 37.5201 52.1321 37.4845 52.2366 37.4845C52.3411 37.4845 52.429 37.5201 52.5002 37.5913C52.5762 37.6673 52.6142 37.7575 52.6142 37.862C52.6142 37.9665 52.5762 38.0544 52.5002 38.1256C52.429 38.2016 52.3411 38.2396 52.2366 38.2396C52.1321 38.2396 52.0419 38.2016 51.9659 38.1256C51.8947 38.0544 51.8591 37.9665 51.8591 37.862Z" fill="white"/>
<path d="M52.7077 36.7863C52.5177 36.7863 52.4227 36.6913 52.4227 36.5014C52.4227 36.3826 52.4465 36.3019 52.494 36.2591C52.5367 36.2164 52.608 36.195 52.7077 36.195H53.185C53.299 36.195 53.3963 36.1903 53.4771 36.1808C53.5578 36.1713 53.6243 36.1499 53.6766 36.1167C53.7335 36.0787 53.7739 36.0264 53.7977 35.9599C53.8262 35.8887 53.8404 35.7937 53.8404 35.675V34.0436H54.4246V35.4114C54.4246 35.5301 54.4317 35.6394 54.4459 35.7391C54.4649 35.8341 54.4982 35.9148 54.5457 35.9813C54.5932 36.0478 54.6573 36.1 54.738 36.138C54.8188 36.176 54.9209 36.195 55.0443 36.195C55.2343 36.195 55.3293 36.29 55.3293 36.48C55.3293 36.5987 55.3056 36.6795 55.2581 36.7222C55.2153 36.7649 55.1441 36.7863 55.0443 36.7863C54.8591 36.7863 54.7095 36.7436 54.5955 36.6581C54.4816 36.5678 54.4056 36.4562 54.3676 36.3233C54.2821 36.518 54.1467 36.6438 53.9615 36.7008C53.781 36.7578 53.5578 36.7863 53.2919 36.7863H52.7077ZM53.7763 32.8468C53.7763 32.7423 53.8119 32.6544 53.8831 32.5832C53.9591 32.5072 54.0494 32.4692 54.1539 32.4692C54.2583 32.4692 54.3462 32.5072 54.4174 32.5832C54.4934 32.6544 54.5314 32.7423 54.5314 32.8468C54.5314 32.9513 54.4934 33.0415 54.4174 33.1175C54.3462 33.1887 54.2583 33.2244 54.1539 33.2244C54.0494 33.2244 53.9591 33.1887 53.8831 33.1175C53.8119 33.0415 53.7763 32.9513 53.7763 32.8468Z" fill="white"/>
<path d="M55.0452 36.7863C54.8553 36.7863 54.7603 36.6913 54.7603 36.5014C54.7603 36.3826 54.784 36.3019 54.8315 36.2591C54.8743 36.2164 54.9455 36.195 55.0452 36.195H55.8502V31.6998H56.4344V35.1834C56.6766 34.7892 56.9592 34.4853 57.2822 34.2716C57.6099 34.0531 57.9898 33.9439 58.422 33.9439C58.8827 33.9439 59.2412 34.0887 59.4977 34.3784C59.7589 34.6681 59.8895 35.0694 59.8895 35.5824V36.7863H55.0452ZM59.3054 36.195V35.7177C59.3054 35.5563 59.2887 35.4043 59.2555 35.2618C59.2222 35.1146 59.1652 34.9887 59.0845 34.8842C59.0038 34.7797 58.8969 34.6966 58.7639 34.6349C58.6357 34.5731 58.4766 34.5423 58.2866 34.5423C58.0587 34.5423 57.8473 34.5945 57.6526 34.699C57.4579 34.8035 57.2822 34.9365 57.1254 35.0979C56.9687 35.2547 56.831 35.4304 56.7122 35.6251C56.5983 35.8198 56.5056 36.0098 56.4344 36.195H59.3054Z" fill="white"/>
<path d="M63.332 36.7863C63.313 37.076 63.2513 37.3159 63.1468 37.5058C63.0471 37.6958 62.9094 37.8478 62.7336 37.9618C62.5579 38.0757 62.3466 38.1565 62.0996 38.204C61.8574 38.2515 61.5867 38.2752 61.2875 38.2752H60.9883V37.6839H61.2091C61.4323 37.6839 61.6365 37.6721 61.8218 37.6483C62.007 37.6293 62.1661 37.5866 62.2991 37.5201C62.4368 37.4583 62.5437 37.3681 62.6196 37.2494C62.7004 37.1306 62.7431 36.9763 62.7479 36.7863H61.9429C61.7482 36.7863 61.5677 36.7649 61.4015 36.7222C61.24 36.6795 61.0975 36.6106 60.974 36.5156C60.8553 36.4159 60.7603 36.2876 60.6891 36.1309C60.6226 35.9742 60.5893 35.7795 60.5893 35.5468C60.5893 35.352 60.6202 35.1621 60.6819 34.9768C60.7484 34.7916 60.841 34.6278 60.9598 34.4853C61.0833 34.3428 61.2305 34.2288 61.4015 34.1433C61.5772 34.0531 61.7766 34.008 61.9999 34.008C62.2468 34.008 62.4558 34.0531 62.6268 34.1433C62.7977 34.2288 62.9355 34.3523 63.04 34.5138C63.1492 34.6753 63.2276 34.87 63.2751 35.0979C63.3225 35.3259 63.3463 35.58 63.3463 35.8602V36.195H63.845C64.0349 36.195 64.1299 36.29 64.1299 36.48C64.1299 36.5987 64.1062 36.6795 64.0587 36.7222C64.0159 36.7649 63.9447 36.7863 63.845 36.7863H63.332ZM61.1592 35.4898C61.1592 35.732 61.2281 35.9101 61.3658 36.0241C61.5083 36.138 61.7149 36.195 61.9856 36.195H62.7479V35.7249C62.7479 35.3734 62.6885 35.0932 62.5698 34.8842C62.451 34.6753 62.2468 34.5708 61.9571 34.5708C61.8194 34.5708 61.7007 34.5993 61.6009 34.6563C61.5012 34.7085 61.4181 34.7797 61.3516 34.87C61.2898 34.9555 61.2424 35.0528 61.2091 35.1621C61.1759 35.2713 61.1592 35.3805 61.1592 35.4898Z" fill="white"/>
<path d="M63.8458 36.7863C63.6558 36.7863 63.5608 36.6913 63.5608 36.5014C63.5608 36.3826 63.5846 36.3019 63.6321 36.2591C63.6748 36.2164 63.7461 36.195 63.8458 36.195H64.9571V31.6998H65.5413V36.7863H63.8458Z" fill="white"/>
<path d="M67.1201 31.6998V36.7863H66.5359V31.6998H67.1201Z" fill="white"/>
<path d="M70.1905 34.927C70.1905 35.1264 70.2522 35.2879 70.3757 35.4114C70.5039 35.5349 70.7058 35.5966 70.9813 35.5966C71.0857 35.5966 71.1973 35.5847 71.3161 35.561C71.4396 35.5373 71.5488 35.5064 71.6438 35.4684V34.2003H71.0169C70.7889 34.2003 70.5942 34.2597 70.4327 34.3784C70.2712 34.4924 70.1905 34.6753 70.1905 34.927ZM70.9314 36.2022C70.8174 36.2022 70.6844 36.1855 70.5324 36.1523C70.3852 36.119 70.2427 36.0597 70.105 35.9742C69.972 35.884 69.858 35.7605 69.7631 35.6037C69.6681 35.4423 69.6206 35.2333 69.6206 34.9768C69.6206 34.7204 69.6657 34.5067 69.7559 34.3357C69.8462 34.16 69.9625 34.0175 70.105 33.9082C70.2475 33.799 70.4042 33.7207 70.5752 33.6732C70.7509 33.6257 70.9243 33.6019 71.0952 33.6019H72.2279V35.6465C72.2279 35.846 72.2588 35.9884 72.3205 36.0739C72.3823 36.1547 72.52 36.195 72.7337 36.195H72.9047C73.0947 36.195 73.1897 36.29 73.1897 36.48C73.1897 36.5987 73.1659 36.6795 73.1184 36.7222C73.0757 36.7649 73.0044 36.7863 72.9047 36.7863H72.6625C72.539 36.7863 72.4203 36.7768 72.3063 36.7578C72.1971 36.7341 72.0973 36.6961 72.0071 36.6438C71.9216 36.5868 71.848 36.5132 71.7863 36.423C71.7245 36.3328 71.6841 36.2164 71.6651 36.0739C71.5607 36.1119 71.4419 36.1428 71.309 36.1665C71.1807 36.1903 71.0549 36.2022 70.9314 36.2022ZM70.3472 32.3054C70.3472 32.2009 70.3828 32.113 70.4541 32.0418C70.5301 31.9658 70.6203 31.9278 70.7248 31.9278C70.8293 31.9278 70.9171 31.9658 70.9884 32.0418C71.0644 32.113 71.1024 32.2009 71.1024 32.3054C71.1024 32.4098 71.0644 32.5001 70.9884 32.5761C70.9171 32.6473 70.8293 32.6829 70.7248 32.6829C70.6203 32.6829 70.5301 32.6473 70.4541 32.5761C70.3828 32.5001 70.3472 32.4098 70.3472 32.3054ZM71.2733 32.3054C71.2733 32.2009 71.309 32.113 71.3802 32.0418C71.4562 31.9658 71.5464 31.9278 71.6509 31.9278C71.7554 31.9278 71.8432 31.9658 71.9145 32.0418C71.9905 32.113 72.0285 32.2009 72.0285 32.3054C72.0285 32.4098 71.9905 32.5001 71.9145 32.5761C71.8432 32.6473 71.7554 32.6829 71.6509 32.6829C71.5464 32.6829 71.4562 32.6473 71.3802 32.5761C71.309 32.5001 71.2733 32.4098 71.2733 32.3054Z" fill="white"/>
<path d="M75.3544 36.7863C75.2072 36.7863 75.0861 36.7744 74.9911 36.7507C74.8961 36.7222 74.8177 36.6866 74.756 36.6438C74.699 36.6011 74.6515 36.5512 74.6135 36.4942C74.5803 36.4372 74.5494 36.3803 74.5209 36.3233C74.4782 36.423 74.4212 36.5037 74.3499 36.5655C74.2787 36.6225 74.1884 36.6676 74.0792 36.7008C73.97 36.7341 73.837 36.7578 73.6803 36.7721C73.5283 36.7816 73.3478 36.7863 73.1389 36.7863H72.9038C72.7138 36.7863 72.6188 36.6913 72.6188 36.5014C72.6188 36.3826 72.6426 36.3019 72.69 36.2591C72.7328 36.2164 72.804 36.195 72.9038 36.195H73.1531C73.3098 36.195 73.4428 36.1903 73.552 36.1808C73.6613 36.1713 73.7468 36.1499 73.8085 36.1167C73.875 36.0787 73.9225 36.0264 73.951 35.9599C73.9795 35.8887 73.9937 35.7937 73.9937 35.675V34.3998H74.5779V35.4114C74.5779 35.5301 74.5826 35.6394 74.5921 35.7391C74.6016 35.8341 74.623 35.9148 74.6563 35.9813C74.6942 36.0478 74.7465 36.1 74.813 36.138C74.8795 36.176 74.9697 36.195 75.0837 36.195C75.1739 35.9338 75.2974 35.6702 75.4541 35.4043C75.6156 35.1336 75.8056 34.8914 76.024 34.6776C76.2473 34.4592 76.499 34.2834 76.7792 34.1505C77.0594 34.0127 77.3633 33.9439 77.691 33.9439C78.1707 33.9439 78.5412 34.0863 78.8024 34.3713C79.0683 34.6563 79.2013 35.06 79.2013 35.5824V36.195H79.7427C79.9327 36.195 80.0277 36.29 80.0277 36.48C80.0277 36.5987 80.004 36.6795 79.9565 36.7222C79.9137 36.7649 79.8425 36.7863 79.7427 36.7863H75.3544ZM78.6172 36.195V35.7177C78.6172 35.5468 78.5982 35.39 78.5602 35.2475C78.5269 35.1003 78.4699 34.9745 78.3892 34.87C78.3085 34.7655 78.2016 34.6848 78.0686 34.6278C77.9404 34.5708 77.7837 34.5423 77.5984 34.5423C77.3705 34.5423 77.1568 34.5921 76.9573 34.6919C76.7626 34.7916 76.5821 34.9198 76.4159 35.0766C76.2544 35.2333 76.1143 35.4114 75.9956 35.6109C75.8768 35.8056 75.7818 36.0003 75.7106 36.195H78.6172Z" fill="white"/>
<path d="M79.7425 36.7863C79.5525 36.7863 79.4575 36.6913 79.4575 36.5014C79.4575 36.3826 79.4813 36.3019 79.5287 36.2591C79.5715 36.2164 79.6427 36.195 79.7425 36.195H80.2198C80.3337 36.195 80.4311 36.1903 80.5118 36.1808C80.5926 36.1713 80.6591 36.1499 80.7113 36.1167C80.7683 36.0787 80.8087 36.0264 80.8324 35.9599C80.8609 35.8887 80.8752 35.7937 80.8752 35.675V34.0436H81.4593V35.4114C81.4593 35.5301 81.4664 35.6394 81.4807 35.7391C81.4997 35.8341 81.5329 35.9148 81.5804 35.9813C81.6279 36.0478 81.692 36.1 81.7728 36.138C81.8535 36.176 81.9556 36.195 82.0791 36.195C82.2691 36.195 82.3641 36.29 82.3641 36.48C82.3641 36.5987 82.3403 36.6795 82.2928 36.7222C82.2501 36.7649 82.1788 36.7863 82.0791 36.7863C81.8939 36.7863 81.7443 36.7436 81.6303 36.6581C81.5163 36.5678 81.4403 36.4562 81.4023 36.3233C81.3168 36.518 81.1815 36.6438 80.9963 36.7008C80.8158 36.7578 80.5926 36.7863 80.3266 36.7863H79.7425ZM80.8111 32.8468C80.8111 32.7423 80.8467 32.6544 80.9179 32.5832C80.9939 32.5072 81.0841 32.4692 81.1886 32.4692C81.2931 32.4692 81.381 32.5072 81.4522 32.5832C81.5282 32.6544 81.5662 32.7423 81.5662 32.8468C81.5662 32.9513 81.5282 33.0415 81.4522 33.1175C81.381 33.1887 81.2931 33.2244 81.1886 33.2244C81.0841 33.2244 80.9939 33.1887 80.9179 33.1175C80.8467 33.0415 80.8111 32.9513 80.8111 32.8468Z" fill="white"/>
<path d="M86.4612 36.7863C86.2807 36.7863 86.124 36.7507 85.991 36.6795C85.8581 36.6082 85.7512 36.4871 85.6705 36.3161V36.3019C85.5802 36.4824 85.4472 36.6248 85.2715 36.7293C85.1005 36.8291 84.8845 36.8789 84.6232 36.8789C84.4 36.8789 84.1744 36.8409 83.9465 36.7649C83.7185 36.689 83.4834 36.5607 83.2412 36.3803C83.1795 36.4752 83.1153 36.5512 83.0489 36.6082C82.9871 36.6605 82.9206 36.7008 82.8494 36.7293C82.7781 36.7531 82.7045 36.7697 82.6285 36.7792C82.5526 36.7839 82.4718 36.7863 82.3863 36.7863H82.08C81.89 36.7863 81.795 36.6913 81.795 36.5014C81.795 36.3826 81.8188 36.3019 81.8663 36.2591C81.909 36.2164 81.9803 36.195 82.08 36.195H82.3721C82.4291 36.195 82.4884 36.1879 82.5502 36.1737C82.6119 36.1594 82.6737 36.1285 82.7354 36.081C82.7971 36.0336 82.8565 35.9694 82.9135 35.8887C82.9752 35.8032 83.0322 35.6892 83.0845 35.5468C83.1937 35.2428 83.3077 34.9982 83.4264 34.813C83.5499 34.623 83.6734 34.4782 83.7969 34.3784C83.9251 34.2739 84.0533 34.2051 84.1816 34.1718C84.3145 34.1386 84.4451 34.122 84.5734 34.122C84.7539 34.122 84.9201 34.1576 85.0721 34.2288C85.224 34.2953 85.3546 34.3927 85.4639 34.5209C85.5779 34.6444 85.6657 34.794 85.7275 34.9697C85.7939 35.1407 85.8272 35.333 85.8272 35.5468C85.8272 35.58 85.8248 35.6132 85.8201 35.6465C85.8201 35.675 85.8201 35.7035 85.8201 35.732C85.8676 35.884 85.9364 36.0003 86.0267 36.081C86.1216 36.157 86.2665 36.195 86.4612 36.195C86.6512 36.195 86.7462 36.29 86.7462 36.48C86.7462 36.5987 86.7224 36.6795 86.6749 36.7222C86.6322 36.7649 86.561 36.7863 86.4612 36.7863ZM85.2359 35.5254C85.2359 35.4209 85.2193 35.3188 85.186 35.2191C85.1575 35.1193 85.1124 35.0315 85.0507 34.9555C84.9937 34.8795 84.9225 34.8201 84.837 34.7774C84.7515 34.7299 84.6517 34.7061 84.5378 34.7061C84.3383 34.7061 84.1554 34.794 83.9892 34.9697C83.823 35.1454 83.6663 35.4541 83.519 35.8958C83.6948 36.0098 83.8681 36.1024 84.0391 36.1737C84.2148 36.2401 84.3929 36.2734 84.5734 36.2734C84.7729 36.2734 84.932 36.2164 85.0507 36.1024C85.1742 35.9884 85.2359 35.7961 85.2359 35.5254Z" fill="white"/>
<path d="M86.4629 36.7863C86.2729 36.7863 86.1779 36.6913 86.1779 36.5014C86.1779 36.3826 86.2017 36.3019 86.2492 36.2591C86.2919 36.2164 86.3632 36.195 86.4629 36.195H87.5742V31.6998H88.1584V36.7863H86.4629Z" fill="white"/>
<path d="M89.7372 31.6998V36.7863H89.153V31.6998H89.7372Z" fill="white"/>
<path d="M32.2234 46.0046C32.0715 46.0046 31.9171 46.0189 31.7604 46.0474C31.6037 46.0806 31.4588 46.1352 31.3258 46.2112C31.1976 46.292 31.0907 46.4012 31.0052 46.5389C30.9245 46.6814 30.8841 46.8619 30.8841 47.0803C30.8841 47.2846 30.9198 47.4603 30.991 47.6075C31.067 47.7547 31.1691 47.8759 31.2973 47.9708C31.4256 48.0658 31.5752 48.1347 31.7461 48.1774C31.9171 48.2249 32.0976 48.2487 32.2876 48.2487C32.4823 48.2487 32.6817 48.232 32.886 48.1988C33.0902 48.1703 33.33 48.0919 33.6055 47.9637L33.8406 48.4125C33.7076 48.5075 33.5651 48.5835 33.4131 48.6405C33.2659 48.6975 33.1234 48.7402 32.9857 48.7687C32.848 48.802 32.7197 48.8233 32.601 48.8328C32.4823 48.8471 32.3849 48.8542 32.3089 48.8542C32.005 48.8542 31.7271 48.8186 31.4754 48.7473C31.2285 48.6761 31.0147 48.5692 30.8343 48.4268C30.6586 48.2843 30.5208 48.1062 30.4211 47.8925C30.3214 47.6788 30.2715 47.4294 30.2715 47.1445C30.2715 46.8025 30.3309 46.5199 30.4496 46.2967C30.5683 46.0735 30.7203 45.8978 30.9055 45.7695C31.0955 45.6366 31.3068 45.544 31.5395 45.4917C31.7723 45.4395 32.0026 45.4133 32.2306 45.4133H33.748C33.748 45.1094 33.7076 44.8529 33.6269 44.644C33.5461 44.435 33.4369 44.2664 33.2992 44.1382C33.1614 44.0052 33 43.9102 32.8147 43.8532C32.6343 43.7915 32.4395 43.7606 32.2306 43.7606C32.0928 43.7606 31.9456 43.7748 31.7889 43.8033C31.6369 43.8271 31.511 43.8532 31.4113 43.8817V43.3118C31.5063 43.2833 31.6322 43.2524 31.7889 43.2192C31.9456 43.1812 32.1166 43.1622 32.3018 43.1622C32.658 43.1622 32.9643 43.2215 33.2208 43.3403C33.4773 43.459 33.6886 43.6229 33.8548 43.8318C34.0258 44.0361 34.1517 44.2759 34.2324 44.5513C34.3131 44.8221 34.3559 45.1094 34.3606 45.4133H34.8094C34.9994 45.4133 35.0944 45.5083 35.0944 45.6983C35.0944 45.817 35.0706 45.8978 35.0231 45.9405C34.9804 45.9833 34.9092 46.0046 34.8094 46.0046H32.2234ZM32.1023 47.0875C32.1023 46.983 32.138 46.8927 32.2092 46.8168C32.2852 46.7455 32.3754 46.7099 32.4799 46.7099C32.5844 46.7099 32.6722 46.7455 32.7435 46.8168C32.8195 46.8927 32.8575 46.983 32.8575 47.0875C32.8575 47.192 32.8195 47.2798 32.7435 47.3511C32.6722 47.427 32.5844 47.465 32.4799 47.465C32.3754 47.465 32.2852 47.427 32.2092 47.3511C32.138 47.2798 32.1023 47.192 32.1023 47.0875Z" fill="white"/>
<path d="M34.8074 46.0046C34.6175 46.0046 34.5225 45.9096 34.5225 45.7197C34.5225 45.6009 34.5462 45.5202 34.5937 45.4775C34.6365 45.4347 34.7077 45.4133 34.8074 45.4133H37.6641C37.6641 45.1094 37.6238 44.8529 37.543 44.644C37.4623 44.435 37.353 44.2664 37.2153 44.1382C37.0776 44.0052 36.9161 43.9102 36.7309 43.8532C36.5504 43.7915 36.3557 43.7606 36.1467 43.7606C36.009 43.7606 35.8618 43.7748 35.705 43.8033C35.5531 43.8271 35.4272 43.8532 35.3275 43.8817V43.3118C35.4225 43.2833 35.5483 43.2524 35.705 43.2192C35.8618 43.1812 36.0327 43.1622 36.218 43.1622C36.5742 43.1622 36.8805 43.2215 37.137 43.3403C37.3934 43.459 37.6048 43.6229 37.771 43.8318C37.942 44.0361 38.0678 44.2759 38.1486 44.5513C38.2293 44.8221 38.272 45.1094 38.2768 45.4133H38.7185C38.9084 45.4133 39.0034 45.5083 39.0034 45.6983C39.0034 45.817 38.9797 45.8978 38.9322 45.9405C38.8894 45.9833 38.8182 46.0046 38.7185 46.0046H34.8074Z" fill="white"/>
<path d="M38.7242 46.0046C38.5342 46.0046 38.4392 45.9096 38.4392 45.7197C38.4392 45.6009 38.463 45.5202 38.5105 45.4775C38.5532 45.4347 38.6245 45.4133 38.7242 45.4133H39.8355V40.9181H40.4197V46.0046H38.7242Z" fill="white"/>
<path d="M41.9985 40.9181V46.0046H41.4143V40.9181H41.9985Z" fill="white"/>
<path d="M46.4296 46.0046C46.2776 46.0046 46.1232 46.0189 45.9665 46.0474C45.8098 46.0806 45.6649 46.1352 45.5319 46.2112C45.4037 46.292 45.2969 46.4012 45.2114 46.5389C45.1306 46.6814 45.0903 46.8619 45.0903 47.0803C45.0903 47.2846 45.1259 47.4603 45.1971 47.6075C45.2731 47.7547 45.3752 47.8759 45.5035 47.9708C45.6317 48.0658 45.7813 48.1347 45.9523 48.1774C46.1232 48.2249 46.3037 48.2487 46.4937 48.2487C46.6884 48.2487 46.8879 48.232 47.0921 48.1988C47.2963 48.1703 47.5361 48.0919 47.8116 47.9637L48.0467 48.4125C47.9137 48.5075 47.7712 48.5835 47.6193 48.6405C47.472 48.6975 47.3296 48.7402 47.1918 48.7687C47.0541 48.802 46.9259 48.8233 46.8071 48.8328C46.6884 48.8471 46.591 48.8542 46.5151 48.8542C46.2111 48.8542 45.9333 48.8186 45.6816 48.7473C45.4346 48.6761 45.2209 48.5692 45.0404 48.4268C44.8647 48.2843 44.7269 48.1062 44.6272 47.8925C44.5275 47.6788 44.4776 47.4294 44.4776 47.1445C44.4776 46.8025 44.537 46.5199 44.6557 46.2967C44.7744 46.0735 44.9264 45.8978 45.1116 45.7695C45.3016 45.6366 45.513 45.544 45.7457 45.4917C45.9784 45.4395 46.2087 45.4133 46.4367 45.4133H47.9541C47.9541 45.1094 47.9137 44.8529 47.833 44.644C47.7522 44.435 47.643 44.2664 47.5053 44.1382C47.3675 44.0052 47.2061 43.9102 47.0209 43.8532C46.8404 43.7915 46.6457 43.7606 46.4367 43.7606C46.299 43.7606 46.1517 43.7748 45.995 43.8033C45.843 43.8271 45.7172 43.8532 45.6174 43.8817V43.3118C45.7124 43.2833 45.8383 43.2524 45.995 43.2192C46.1517 43.1812 46.3227 43.1622 46.5079 43.1622C46.8641 43.1622 47.1705 43.2215 47.4269 43.3403C47.6834 43.459 47.8947 43.6229 48.0609 43.8318C48.2319 44.0361 48.3578 44.2759 48.4385 44.5513C48.5193 44.8221 48.562 45.1094 48.5667 45.4133H49.0156C49.2055 45.4133 49.3005 45.5083 49.3005 45.6983C49.3005 45.817 49.2768 45.8978 49.2293 45.9405C49.1865 45.9833 49.1153 46.0046 49.0156 46.0046H46.4296Z" fill="white"/>
<path d="M49.0135 46.0046C48.8236 46.0046 48.7286 45.9096 48.7286 45.7197C48.7286 45.6009 48.7523 45.5202 48.7998 45.4775C48.8426 45.4347 48.9138 45.4133 49.0135 45.4133H50.1249V43.2619H50.709V46.0046H49.0135ZM49.2985 47.0803C49.2985 46.9759 49.3341 46.8856 49.4054 46.8096C49.4814 46.7384 49.5716 46.7028 49.6761 46.7028C49.7806 46.7028 49.8684 46.7384 49.9397 46.8096C50.0156 46.8856 50.0536 46.9759 50.0536 47.0803C50.0536 47.1848 50.0156 47.2727 49.9397 47.3439C49.8684 47.4199 49.7806 47.4579 49.6761 47.4579C49.5716 47.4579 49.4814 47.4199 49.4054 47.3439C49.3341 47.2727 49.2985 47.1848 49.2985 47.0803ZM50.2246 47.0803C50.2246 46.9759 50.2602 46.8856 50.3315 46.8096C50.4075 46.7384 50.4977 46.7028 50.6022 46.7028C50.7067 46.7028 50.7945 46.7384 50.8658 46.8096C50.9418 46.8856 50.9798 46.9759 50.9798 47.0803C50.9798 47.1848 50.9418 47.2727 50.8658 47.3439C50.7945 47.4199 50.7067 47.4579 50.6022 47.4579C50.4977 47.4579 50.4075 47.4199 50.3315 47.3439C50.2602 47.2727 50.2246 47.1848 50.2246 47.0803Z" fill="white"/>
<path d="M52.2166 43.6181H52.7936V45.6057C52.7936 45.9571 52.7723 46.2516 52.7295 46.4891C52.6915 46.7313 52.6155 46.926 52.5015 47.0732C52.3876 47.2204 52.2285 47.3273 52.0242 47.3938C51.8248 47.4603 51.5659 47.4935 51.2477 47.4935V46.9022C51.4805 46.9022 51.6609 46.8761 51.7892 46.8239C51.9221 46.7764 52.0195 46.6957 52.0812 46.5817C52.1477 46.4724 52.1857 46.33 52.1952 46.1542C52.2095 45.9833 52.2166 45.7743 52.2166 45.5273V43.6181Z" fill="white"/>
<path d="M55.2797 45.6983C55.2797 45.817 55.2559 45.8978 55.2084 45.9405C55.1657 45.9833 55.0944 46.0046 54.9947 46.0046H54.8095C54.6575 46.0046 54.5174 45.9904 54.3892 45.9619C54.2657 45.9286 54.1588 45.874 54.0686 45.798C53.9831 45.722 53.9142 45.6223 53.862 45.4988C53.8145 45.3706 53.7908 45.2115 53.7908 45.0215V40.9181H54.3749V44.8648C54.3749 45.0643 54.4058 45.2068 54.4675 45.2922C54.5293 45.373 54.667 45.4133 54.8807 45.4133H54.9947C55.1847 45.4133 55.2797 45.5083 55.2797 45.6983Z" fill="white"/>
<path d="M57.4472 46.0046C57.2999 46.0046 57.1788 45.9928 57.0838 45.969C56.9889 45.9405 56.9105 45.9049 56.8488 45.8622C56.7918 45.8194 56.7443 45.7695 56.7063 45.7125C56.673 45.6556 56.6422 45.5986 56.6137 45.5416C56.5709 45.6413 56.5139 45.722 56.4427 45.7838C56.3715 45.8408 56.2812 45.8859 56.172 45.9191C56.0628 45.9524 55.9298 45.9761 55.773 45.9904C55.6211 45.9999 55.4406 46.0046 55.2316 46.0046H54.9965C54.8066 46.0046 54.7116 45.9096 54.7116 45.7197C54.7116 45.6009 54.7353 45.5202 54.7828 45.4775C54.8256 45.4347 54.8968 45.4133 54.9965 45.4133H55.2459C55.4026 45.4133 55.5356 45.4086 55.6448 45.3991C55.754 45.3896 55.8395 45.3682 55.9013 45.335C55.9678 45.297 56.0153 45.2447 56.0438 45.1783C56.0723 45.107 56.0865 45.012 56.0865 44.8933V43.6181H56.6707V44.6297C56.6707 44.7484 56.6754 44.8577 56.6849 44.9574C56.6944 45.0524 56.7158 45.1331 56.749 45.1996C56.787 45.2661 56.8393 45.3184 56.9058 45.3564C56.9722 45.3943 57.0625 45.4133 57.1765 45.4133C57.2667 45.1521 57.3902 44.8885 57.5469 44.6226C57.7084 44.3519 57.8984 44.1097 58.1168 43.8959C58.34 43.6775 58.5917 43.5018 58.872 43.3688C59.1522 43.231 59.4561 43.1622 59.7838 43.1622C60.2635 43.1622 60.6339 43.3047 60.8952 43.5896C61.1611 43.8746 61.2941 44.2783 61.2941 44.8007V45.4133H61.8355C62.0255 45.4133 62.1205 45.5083 62.1205 45.6983C62.1205 45.817 62.0967 45.8978 62.0492 45.9405C62.0065 45.9833 61.9352 46.0046 61.8355 46.0046H57.4472ZM60.7099 45.4133V44.936C60.7099 44.7651 60.6909 44.6083 60.6529 44.4659C60.6197 44.3186 60.5627 44.1928 60.482 44.0883C60.4012 43.9838 60.2944 43.9031 60.1614 43.8461C60.0332 43.7891 59.8764 43.7606 59.6912 43.7606C59.4632 43.7606 59.2495 43.8105 59.0501 43.9102C58.8553 44.0099 58.6749 44.1382 58.5086 44.2949C58.3472 44.4516 58.2071 44.6297 58.0883 44.8292C57.9696 45.0239 57.8746 45.2186 57.8034 45.4133H60.7099Z" fill="white"/>
<path d="M61.8352 46.0046C61.6453 46.0046 61.5503 45.9096 61.5503 45.7197C61.5503 45.6009 61.574 45.5202 61.6215 45.4775C61.6643 45.4347 61.7355 45.4133 61.8352 45.4133H62.3125C62.4265 45.4133 62.5239 45.4086 62.6046 45.3991C62.6854 45.3896 62.7519 45.3682 62.8041 45.335C62.8611 45.297 62.9015 45.2447 62.9252 45.1783C62.9537 45.107 62.9679 45.012 62.9679 44.8933V43.2619H63.5521V44.6297C63.5521 44.7484 63.5592 44.8577 63.5735 44.9574C63.5925 45.0524 63.6257 45.1331 63.6732 45.1996C63.7207 45.2661 63.7848 45.3184 63.8656 45.3564C63.9463 45.3943 64.0484 45.4133 64.1719 45.4133C64.3619 45.4133 64.4568 45.5083 64.4568 45.6983C64.4568 45.817 64.4331 45.8978 64.3856 45.9405C64.3429 45.9833 64.2716 46.0046 64.1719 46.0046C63.9867 46.0046 63.8371 45.9619 63.7231 45.8764C63.6091 45.7862 63.5331 45.6746 63.4951 45.5416C63.4096 45.7363 63.2743 45.8622 63.089 45.9191C62.9086 45.9761 62.6854 46.0046 62.4194 46.0046H61.8352ZM62.398 42.0651C62.398 41.9606 62.4336 41.8728 62.5049 41.8015C62.5809 41.7255 62.6711 41.6875 62.7756 41.6875C62.8801 41.6875 62.9679 41.7255 63.0392 41.8015C63.1152 41.8728 63.1532 41.9606 63.1532 42.0651C63.1532 42.1696 63.1152 42.2598 63.0392 42.3358C62.9679 42.407 62.8801 42.4427 62.7756 42.4427C62.6711 42.4427 62.5809 42.407 62.5049 42.3358C62.4336 42.2598 62.398 42.1696 62.398 42.0651ZM63.3241 42.0651C63.3241 41.9606 63.3598 41.8728 63.431 41.8015C63.507 41.7255 63.5972 41.6875 63.7017 41.6875C63.8062 41.6875 63.8941 41.7255 63.9653 41.8015C64.0413 41.8728 64.0793 41.9606 64.0793 42.0651C64.0793 42.1696 64.0413 42.2598 63.9653 42.3358C63.8941 42.407 63.8062 42.4427 63.7017 42.4427C63.5972 42.4427 63.507 42.407 63.431 42.3358C63.3598 42.2598 63.3241 42.1696 63.3241 42.0651Z" fill="white"/>
<path d="M64.1728 46.0046C63.9828 46.0046 63.8878 45.9096 63.8878 45.7197C63.8878 45.6009 63.9116 45.5202 63.9591 45.4775C64.0018 45.4347 64.073 45.4133 64.1728 45.4133H65.2841V40.9181H65.8683V46.0046H64.1728Z" fill="white"/>
<path d="M69.6934 43.7392C69.5746 43.7392 69.4654 43.7677 69.3657 43.8247C69.2659 43.8769 69.1805 43.9482 69.1092 44.0384C69.038 44.1287 68.981 44.2331 68.9382 44.3519C68.9002 44.4706 68.8812 44.5965 68.8812 44.7294C68.8812 44.8577 68.9026 44.9693 68.9454 45.0643C68.9881 45.1545 69.0451 45.2305 69.1163 45.2922C69.1923 45.3492 69.2778 45.392 69.3728 45.4205C69.4725 45.4442 69.577 45.4561 69.6863 45.4561C69.786 45.4561 69.8834 45.4466 69.9783 45.4276C70.0781 45.4038 70.1659 45.3659 70.2419 45.3136C70.3179 45.2566 70.3797 45.1854 70.4271 45.0999C70.4746 45.0097 70.4984 44.8957 70.4984 44.7579C70.4984 44.6012 70.4746 44.4611 70.4271 44.3376C70.3844 44.2141 70.325 44.1073 70.249 44.0171C70.1778 43.9268 70.0923 43.858 69.9926 43.8105C69.8976 43.763 69.7979 43.7392 69.6934 43.7392ZM68.347 44.7864C68.347 44.5965 68.3778 44.4065 68.4396 44.2165C68.5013 44.0218 68.5915 43.8461 68.7103 43.6894C68.829 43.5326 68.9715 43.4068 69.1377 43.3118C69.3087 43.2121 69.501 43.1622 69.7147 43.1622C69.9 43.1622 70.0709 43.2002 70.2277 43.2762C70.3891 43.3474 70.5293 43.4543 70.648 43.5967C70.7715 43.7345 70.8665 43.9031 70.9329 44.1025C71.0042 44.302 71.0398 44.53 71.0398 44.7864C71.0398 44.9432 71.0137 45.0975 70.9614 45.2495C70.9139 45.3967 70.8332 45.5297 70.7192 45.6484C70.61 45.7624 70.4675 45.8574 70.2918 45.9334C70.1208 46.0046 69.9142 46.0403 69.672 46.0403C69.4725 46.0403 69.2921 46.0165 69.1306 45.969C68.9691 45.9168 68.829 45.8384 68.7103 45.7339C68.5963 45.6294 68.5061 45.4988 68.4396 45.3421C68.3778 45.1854 68.347 45.0002 68.347 44.7864ZM68.8029 42.0651C68.8029 41.9606 68.8385 41.8728 68.9097 41.8015C68.9857 41.7255 69.076 41.6875 69.1805 41.6875C69.2849 41.6875 69.3728 41.7255 69.444 41.8015C69.52 41.8728 69.558 41.9606 69.558 42.0651C69.558 42.1696 69.52 42.2598 69.444 42.3358C69.3728 42.407 69.2849 42.4427 69.1805 42.4427C69.076 42.4427 68.9857 42.407 68.9097 42.3358C68.8385 42.2598 68.8029 42.1696 68.8029 42.0651ZM69.729 42.0651C69.729 41.9606 69.7646 41.8728 69.8359 41.8015C69.9118 41.7255 70.0021 41.6875 70.1066 41.6875C70.211 41.6875 70.2989 41.7255 70.3702 41.8015C70.4461 41.8728 70.4841 41.9606 70.4841 42.0651C70.4841 42.1696 70.4461 42.2598 70.3702 42.3358C70.2989 42.407 70.211 42.4427 70.1066 42.4427C70.0021 42.4427 69.9118 42.407 69.8359 42.3358C69.7646 42.2598 69.729 42.1696 69.729 42.0651Z" fill="white"/>
<path d="M74.7281 46.0046C74.5334 46.0046 74.3695 45.9643 74.2366 45.8835C74.1036 45.8028 73.9706 45.6579 73.8376 45.449C73.7854 45.5772 73.7165 45.6793 73.631 45.7553C73.5503 45.8313 73.4577 45.8883 73.3532 45.9263C73.2535 45.9595 73.1466 45.9809 73.0326 45.9904C72.9186 45.9999 72.8046 46.0046 72.6907 46.0046H71.6078V45.4133H72.883C73.0825 45.4133 73.2345 45.3896 73.3389 45.3421C73.4482 45.2899 73.5028 45.2162 73.5028 45.1213C73.5028 45.031 73.479 44.9408 73.4315 44.8506C73.3841 44.7603 73.3247 44.663 73.2535 44.5585L72.4983 43.44L73.0469 43.0981L73.9017 44.5157C73.9967 44.6725 74.0798 44.8078 74.1511 44.9218C74.2223 45.0358 74.2888 45.1284 74.3505 45.1996C74.417 45.2709 74.4788 45.3255 74.5358 45.3635C74.5975 45.3967 74.6616 45.4133 74.7281 45.4133C74.9181 45.4133 75.0131 45.5083 75.0131 45.6983C75.0131 45.817 74.9893 45.8978 74.9418 45.9405C74.8991 45.9833 74.8278 46.0046 74.7281 46.0046Z" fill="white"/>
<path d="M77.5832 45.4133C77.5832 45.1094 77.5428 44.8529 77.4621 44.644C77.3813 44.435 77.2721 44.2664 77.1344 44.1382C76.9967 44.0052 76.8352 43.9102 76.65 43.8532C76.4695 43.7915 76.2748 43.7606 76.0658 43.7606C75.9281 43.7606 75.7808 43.7748 75.6241 43.8033C75.4721 43.8271 75.3463 43.8532 75.2465 43.8817V43.3118C75.3415 43.2833 75.4674 43.2524 75.6241 43.2192C75.7808 43.1812 75.9518 43.1622 76.137 43.1622C76.498 43.1622 76.8091 43.2239 77.0703 43.3474C77.3315 43.4709 77.5452 43.6395 77.7114 43.8532C77.8776 44.0622 77.9987 44.3091 78.0747 44.5941C78.1555 44.8743 78.1958 45.1711 78.1958 45.4846V46.0046H74.7265C74.5365 46.0046 74.4415 45.9096 74.4415 45.7197C74.4415 45.6009 74.4653 45.5202 74.5128 45.4775C74.5555 45.4347 74.6268 45.4133 74.7265 45.4133H77.5832Z" fill="white"/>
<path d="M81.5662 46.0046C81.5472 46.2943 81.4855 46.5342 81.381 46.7241C81.2813 46.9141 81.1436 47.0661 80.9678 47.1801C80.7921 47.2941 80.5808 47.3748 80.3338 47.4223C80.0916 47.4698 79.8209 47.4935 79.5217 47.4935H79.2225V46.9022H79.4433C79.6665 46.9022 79.8708 46.8904 80.056 46.8666C80.2412 46.8476 80.4003 46.8049 80.5333 46.7384C80.671 46.6767 80.7779 46.5864 80.8539 46.4677C80.9346 46.349 80.9773 46.1946 80.9821 46.0046H80.1771C79.9824 46.0046 79.8019 45.9833 79.6357 45.9405C79.4742 45.8978 79.3317 45.8289 79.2082 45.7339C79.0895 45.6342 78.9945 45.506 78.9233 45.3492C78.8568 45.1925 78.8235 44.9978 78.8235 44.7651C78.8235 44.5703 78.8544 44.3804 78.9161 44.1952C78.9826 44.0099 79.0752 43.8461 79.194 43.7036C79.3175 43.5611 79.4647 43.4471 79.6357 43.3617C79.8114 43.2714 80.0109 43.2263 80.2341 43.2263C80.481 43.2263 80.69 43.2714 80.861 43.3617C81.032 43.4471 81.1697 43.5706 81.2742 43.7321C81.3834 43.8936 81.4618 44.0883 81.5093 44.3163C81.5567 44.5442 81.5805 44.7983 81.5805 45.0785V45.4133H82.0792C82.2691 45.4133 82.3641 45.5083 82.3641 45.6983C82.3641 45.817 82.3404 45.8978 82.2929 45.9405C82.2501 45.9833 82.1789 46.0046 82.0792 46.0046H81.5662ZM79.3934 44.7081C79.3934 44.9503 79.4623 45.1284 79.6 45.2424C79.7425 45.3564 79.9491 45.4133 80.2198 45.4133H80.9821V44.9432C80.9821 44.5917 80.9227 44.3115 80.804 44.1025C80.6853 43.8936 80.481 43.7891 80.1913 43.7891C80.0536 43.7891 79.9349 43.8176 79.8351 43.8746C79.7354 43.9268 79.6523 43.9981 79.5858 44.0883C79.5241 44.1738 79.4766 44.2711 79.4433 44.3804C79.4101 44.4896 79.3934 44.5988 79.3934 44.7081Z" fill="white"/>
<path d="M86.4612 46.0046C86.2807 46.0046 86.124 45.969 85.991 45.8978C85.8581 45.8265 85.7512 45.7054 85.6705 45.5345V45.5202C85.5802 45.7007 85.4472 45.8432 85.2715 45.9476C85.1005 46.0474 84.8845 46.0972 84.6232 46.0972C84.4 46.0972 84.1744 46.0592 83.9465 45.9833C83.7185 45.9073 83.4834 45.779 83.2412 45.5986C83.1795 45.6936 83.1153 45.7695 83.0489 45.8265C82.9871 45.8788 82.9206 45.9191 82.8494 45.9476C82.7781 45.9714 82.7045 45.988 82.6285 45.9975C82.5526 46.0023 82.4718 46.0046 82.3863 46.0046H82.08C81.89 46.0046 81.795 45.9096 81.795 45.7197C81.795 45.6009 81.8188 45.5202 81.8663 45.4775C81.909 45.4347 81.9803 45.4133 82.08 45.4133H82.3721C82.4291 45.4133 82.4884 45.4062 82.5502 45.392C82.6119 45.3777 82.6737 45.3469 82.7354 45.2994C82.7971 45.2519 82.8565 45.1878 82.9135 45.107C82.9752 45.0215 83.0322 44.9075 83.0845 44.7651C83.1937 44.4611 83.3077 44.2165 83.4264 44.0313C83.5499 43.8413 83.6734 43.6965 83.7969 43.5967C83.9251 43.4923 84.0533 43.4234 84.1816 43.3901C84.3145 43.3569 84.4451 43.3403 84.5734 43.3403C84.7539 43.3403 84.9201 43.3759 85.0721 43.4471C85.224 43.5136 85.3546 43.611 85.4639 43.7392C85.5779 43.8627 85.6657 44.0123 85.7275 44.188C85.7939 44.359 85.8272 44.5513 85.8272 44.7651C85.8272 44.7983 85.8248 44.8316 85.8201 44.8648C85.8201 44.8933 85.8201 44.9218 85.8201 44.9503C85.8676 45.1023 85.9364 45.2186 86.0267 45.2994C86.1216 45.3754 86.2665 45.4133 86.4612 45.4133C86.6512 45.4133 86.7462 45.5083 86.7462 45.6983C86.7462 45.817 86.7224 45.8978 86.6749 45.9405C86.6322 45.9833 86.561 46.0046 86.4612 46.0046ZM85.2359 44.7437C85.2359 44.6392 85.2193 44.5371 85.186 44.4374C85.1575 44.3376 85.1124 44.2498 85.0507 44.1738C84.9937 44.0978 84.9225 44.0384 84.837 43.9957C84.7515 43.9482 84.6517 43.9244 84.5378 43.9244C84.3383 43.9244 84.1554 44.0123 83.9892 44.188C83.823 44.3638 83.6663 44.6725 83.519 45.1141C83.6948 45.2281 83.8681 45.3207 84.0391 45.392C84.2148 45.4585 84.3929 45.4917 84.5734 45.4917C84.7729 45.4917 84.932 45.4347 85.0507 45.3207C85.1742 45.2068 85.2359 45.0144 85.2359 44.7437Z" fill="white"/>
<path d="M86.4629 46.0046C86.2729 46.0046 86.1779 45.9096 86.1779 45.7197C86.1779 45.6009 86.2017 45.5202 86.2492 45.4775C86.2919 45.4347 86.3632 45.4133 86.4629 45.4133H87.5742V40.9181H88.1584V46.0046H86.4629Z" fill="white"/>
<path d="M89.7372 40.9181V46.0046H89.153V40.9181H89.7372Z" fill="white"/>
<path d="M144.461 11.0444L135.594 16.1652L129.578 12.6906L125.33 10.238L121.083 12.6906L115.07 16.1615L106.203 11.0444L125.334 0L144.461 11.0444Z" fill="white"/>
<path d="M159.899 7.03662V18.4266L125.333 38.3841L101.955 24.887V13.4971L121.086 24.5414L125.333 26.9941L129.581 24.5414L159.899 7.03662Z" fill="url(#paint0_linear_1_425)"/>
<path d="M129.581 40.8367L148.708 29.7924V40.4874L125.333 53.9845L101.955 40.4874V29.7924L121.086 40.8367L125.333 43.2894L129.581 40.8367Z" fill="white"/>
<defs>
<linearGradient id="paint0_linear_1_425" x1="155.211" y1="11.3965" x2="109.479" y2="32.28" gradientUnits="userSpaceOnUse">
<stop stop-color="#D3AF7C"/>
<stop offset="1" stop-color="#B88B4B"/>
</linearGradient>
</defs>
</svg>
